<svg xmlns="http://www.w3.org/2000/svg" viewBox="0 0 512 512" width="512" height="512"><defs><linearGradient id="p0" gradientUnits="userSpaceOnUse" x1="-0.001" y1="0.003" x2="28.003" y2="28.000"><stop offset="0" stop-color="#6132c4"/><stop offset="1" stop-color="#311a61"/></linearGradient><linearGradient id="g0" gradientUnits="userSpaceOnUse" x1="0" y1="0.003" x2="0" y2="28.000"><stop offset="0" stop-color="#ffffff" stop-opacity="0.22"/><stop offset="0.55" stop-color="#ffffff" stop-opacity="0.03"/><stop offset="1" stop-color="#ffffff" stop-opacity="0"/></linearGradient><linearGradient id="p1" gradientUnits="userSpaceOnUse" x1="9.064" y1="8.750" x2="18.936" y2="19.250"><stop offset="0" stop-color="#fa3a98"/><stop offset="1" stop-color="#b3065b"/></linearGradient><linearGradient id="g1" gradientUnits="userSpaceOnUse" x1="0" y1="8.750" x2="0" y2="19.250"><stop offset="0" stop-color="#ffffff" stop-opacity="0.22"/><stop offset="0.55" stop-color="#ffffff" stop-opacity="0.03"/><stop offset="1" stop-color="#ffffff" stop-opacity="0"/></linearGradient></defs><g transform="translate(21.000 21.000) scale(16.78571)"><path d="M18.39 20.16C5.8 30.81-6.67 14.64 4.09 3.75-0.92 15.56 8.3 24.5 18.4 20.16m1.73-10.71C30.96 21.88 15.04 34.66 4 24.05c11.86 4.83 20.62-4.56 16.13-14.6M9.57 7.77c12.5-10.73 25.1 5.35 14.4 16.32C28.9 12.24 19.63 3.36 9.57 7.77m-2.1 10.08c-9.6-13.4 7.45-24.61 17.45-13-11.36-5.94-20.97 2.58-17.44 13" fill="url(#p0)" fill-rule="evenodd" stroke="url(#p0)" stroke-width="0.22" stroke-linejoin="round"/><path d="M18.39 20.16C5.8 30.81-6.67 14.64 4.09 3.75-0.92 15.56 8.3 24.5 18.4 20.16m1.73-10.71C30.96 21.88 15.04 34.66 4 24.05c11.86 4.83 20.62-4.56 16.13-14.6M9.57 7.77c12.5-10.73 25.1 5.35 14.4 16.32C28.9 12.24 19.63 3.36 9.57 7.77m-2.1 10.08c-9.6-13.4 7.45-24.61 17.45-13-11.36-5.94-20.97 2.58-17.44 13" fill="url(#g0)" fill-rule="evenodd"/><path d="M14 19.25a5.26 5.26 0 0 0 0-10.5 5.26 5.26 0 0 0 0 10.5" fill="url(#p1)" fill-rule="evenodd" stroke="url(#p1)" stroke-width="0.22" stroke-linejoin="round"/><path d="M14 19.25a5.26 5.26 0 0 0 0-10.5 5.26 5.26 0 0 0 0 10.5" fill="url(#g1)" fill-rule="evenodd"/></g></svg>
