<svg xmlns="http://www.w3.org/2000/svg" viewBox="0 0 512 512" width="512" height="512"><defs><linearGradient id="p0" gradientUnits="userSpaceOnUse" x1="3.500" y1="0.000" x2="24.500" y2="28.000"><stop offset="0" stop-color="#e55156"/><stop offset="1" stop-color="#a11a1f"/></linearGradient><linearGradient id="g0" gradientUnits="userSpaceOnUse" x1="0" y1="0.000" x2="0" y2="28.000"><stop offset="0" stop-color="#ffffff" stop-opacity="0.22"/><stop offset="0.55" stop-color="#ffffff" stop-opacity="0.03"/><stop offset="1" stop-color="#ffffff" stop-opacity="0"/></linearGradient></defs><g transform="translate(26.000 26.000) scale(16.42857)"><path d="M14.02 1.71a2.6 2.6 0 0 1 2.58 2.61 2.6 2.6 0 0 1-2.58 2.61 2.6 2.6 0 0 1-2.58-2.6 2.6 2.6 0 0 1 2.58-2.62M20.03 0a2.6 2.6 0 0 1 2.59 2.61 2.6 2.6 0 0 1-2.59 2.61 2.6 2.6 0 0 1-2.58-2.6A2.6 2.6 0 0 1 20.03 0M8.51 4.38A2.6 2.6 0 0 1 11.1 7a2.6 2.6 0 0 1-2.6 2.6A2.6 2.6 0 0 1 5.93 7 2.6 2.6 0 0 1 8.5 4.38M14 16.59c0.17 0 1.89-0.08 2.95 0.46 0.39 0.2 0.43 0.45 0.43 0.71 0 1.24-3.35 3-3.68 3.18-4.23 2.16-10.2 2.52-10.2 2.52L3.56 28c2.55-0.35 7.16-0.88 12.73-3.9 2.75-1.48 5.73-3.94 5.17-7.45-0.53-3.4-4.08-4.35-7.43-4.2L14 16.58c-0.17 0-1.89 0.07-2.95-0.46-0.39-0.2-0.42-0.45-0.42-0.71 0-1.24 3.34-3.01 3.67-3.18 4.23-2.16 10.2-2.53 10.2-2.53l-0.06-4.53c-2.55 0.35-7.16 0.87-12.73 3.89-2.75 1.49-5.73 3.94-5.17 7.46 0.53 3.39 4.08 4.34 7.43 4.2z" fill="url(#p0)" fill-rule="evenodd" stroke="url(#p0)" stroke-width="0.22" stroke-linejoin="round"/><path d="M14.02 1.71a2.6 2.6 0 0 1 2.58 2.61 2.6 2.6 0 0 1-2.58 2.61 2.6 2.6 0 0 1-2.58-2.6 2.6 2.6 0 0 1 2.58-2.62M20.03 0a2.6 2.6 0 0 1 2.59 2.61 2.6 2.6 0 0 1-2.59 2.61 2.6 2.6 0 0 1-2.58-2.6A2.6 2.6 0 0 1 20.03 0M8.51 4.38A2.6 2.6 0 0 1 11.1 7a2.6 2.6 0 0 1-2.6 2.6A2.6 2.6 0 0 1 5.93 7 2.6 2.6 0 0 1 8.5 4.38M14 16.59c0.17 0 1.89-0.08 2.95 0.46 0.39 0.2 0.43 0.45 0.43 0.71 0 1.24-3.35 3-3.68 3.18-4.23 2.16-10.2 2.52-10.2 2.52L3.56 28c2.55-0.35 7.16-0.88 12.73-3.9 2.75-1.48 5.73-3.94 5.17-7.45-0.53-3.4-4.08-4.35-7.43-4.2L14 16.58c-0.17 0-1.89 0.07-2.95-0.46-0.39-0.2-0.42-0.45-0.42-0.71 0-1.24 3.34-3.01 3.67-3.18 4.23-2.16 10.2-2.53 10.2-2.53l-0.06-4.53c-2.55 0.35-7.16 0.87-12.73 3.89-2.75 1.49-5.73 3.94-5.17 7.46 0.53 3.39 4.08 4.34 7.43 4.2z" fill="url(#g0)" fill-rule="evenodd"/></g></svg>
